<svg xmlns="http://www.w3.org/2000/svg" viewBox="0 0 128 128" role="img" aria-labelledby="title desc">
  <title id="title">eslint-plugin-sdl-2 logo</title>
  <desc id="desc">Six-stage SDL lifecycle ring surrounding a secure hexagonal core.</desc>

  <circle cx="64" cy="64" r="45" fill="none" stroke="#090c16" stroke-width="30" />

  <circle cx="64" cy="64" r="45" fill="none" stroke="#8b5cf6" stroke-width="22" stroke-linecap="round" stroke-dasharray="38 251" transform="rotate(-90 64 64)" />
  <circle cx="64" cy="64" r="45" fill="none" stroke="#ec4899" stroke-width="22" stroke-linecap="round" stroke-dasharray="38 251" stroke-dashoffset="-48" transform="rotate(-90 64 64)" />
  <circle cx="64" cy="64" r="45" fill="none" stroke="#f97316" stroke-width="22" stroke-linecap="round" stroke-dasharray="38 251" stroke-dashoffset="-96" transform="rotate(-90 64 64)" />
  <circle cx="64" cy="64" r="45" fill="none" stroke="#facc15" stroke-width="22" stroke-linecap="round" stroke-dasharray="38 251" stroke-dashoffset="-144" transform="rotate(-90 64 64)" />
  <circle cx="64" cy="64" r="45" fill="none" stroke="#22d3ee" stroke-width="22" stroke-linecap="round" stroke-dasharray="38 251" stroke-dashoffset="-192" transform="rotate(-90 64 64)" />
  <circle cx="64" cy="64" r="45" fill="none" stroke="#38bdf8" stroke-width="22" stroke-linecap="round" stroke-dasharray="38 251" stroke-dashoffset="-240" transform="rotate(-90 64 64)" />

  <polygon points="64,29 94,47 94,81 64,99 34,81 34,47" fill="#5b43d6" />
  <polygon points="64,44 82,54 82,74 64,84 46,74 46,54" fill="#8b8df6" />
</svg>
